<svg width="16" height="16" viewBox="0 0 16 16" fill="none" xmlns="http://www.w3.org/2000/svg">
<path d="M2.93745 13.6532L1.44152 15.1491C1.17288 15.4177 0.865413 15.4788 0.51911 15.3323C0.17267 15.1858 -0.000549316 14.9243 -0.000549316 14.5478V2.28352C-0.000549316 1.81453 0.164441 1.41504 0.494422 1.08506C0.824403 0.755079 1.22389 0.590088 1.69288 0.590088H14.3071C14.7761 0.590088 15.1756 0.755079 15.5056 1.08506C15.8356 1.41504 16.0005 1.81453 16.0005 2.28352V11.9597C16.0005 12.4287 15.8356 12.8282 15.5056 13.1582C15.1756 13.4882 14.7761 13.6532 14.3071 13.6532H2.93745ZM2.32537 11.9597H14.3071V2.28352H1.69288V12.5971L2.32537 11.9597Z" fill="white"/>
<path d="M3.83838 10.5493H9.22472C9.43283 10.5493 9.60727 10.4793 9.74805 10.3394C9.88883 10.1994 9.95922 10.026 9.95922 9.81909C9.95922 9.61221 9.88883 9.43736 9.74805 9.29454C9.60727 9.15172 9.43283 9.08031 9.22472 9.08031H3.83838C3.63027 9.08031 3.45583 9.15029 3.31505 9.29025C3.17427 9.43021 3.10388 9.60364 3.10388 9.81052C3.10388 10.0174 3.17427 10.1923 3.31505 10.3351C3.45583 10.4779 3.63027 10.5493 3.83838 10.5493ZM3.83838 7.85614H12.1627C12.3708 7.85614 12.5453 7.78616 12.6861 7.64619C12.8268 7.50623 12.8972 7.33281 12.8972 7.12592C12.8972 6.91904 12.8268 6.74419 12.6861 6.60137C12.5453 6.45855 12.3708 6.38714 12.1627 6.38714H3.83838C3.63027 6.38714 3.45583 6.45712 3.31505 6.59708C3.17427 6.73705 3.10388 6.91047 3.10388 7.11735C3.10388 7.32424 3.17427 7.49909 3.31505 7.64191C3.45583 7.78473 3.63027 7.85614 3.83838 7.85614ZM3.83838 5.16297H12.1627C12.3708 5.16297 12.5453 5.09299 12.6861 4.95303C12.8268 4.81306 12.8972 4.63964 12.8972 4.43276C12.8972 4.22587 12.8268 4.05102 12.6861 3.9082C12.5453 3.76538 12.3708 3.69397 12.1627 3.69397H3.83838C3.63027 3.69397 3.45583 3.76395 3.31505 3.90391C3.17427 4.04388 3.10388 4.2173 3.10388 4.42419C3.10388 4.63107 3.17427 4.80592 3.31505 4.94874C3.45583 5.09156 3.63027 5.16297 3.83838 5.16297Z" fill="white" fill-opacity="0.75"/>
</svg>
